<svg xmlns="http://www.w3.org/2000/svg" width="212.063" height="261" viewBox="0 0 212.063 261">
  <g id="tree-decidious-svgrepo-com" transform="translate(-6)">
    <path id="Path_2" data-name="Path 2" d="M174.145,85.2a65.25,65.25,0,1,0-124.228,0A65.2,65.2,0,1,0,109.1,199.869L76.429,167.2H59.016a4.078,4.078,0,0,1,0-8.156H75.328V142.734a4.078,4.078,0,0,1,8.156,0v19.987l24.469,24.457v-50.9L92.864,121.186a3.871,3.871,0,0,1,.179-5.6c1.595-1.595,3.809-1.957,5.4-.367l13.588,13.588,13.417-13.417a4.152,4.152,0,0,1,5.828-.061,4.078,4.078,0,0,1,0,5.771l-15.162,15.162v50.915l24.469-24.473V142.734a4.078,4.078,0,0,1,8.156,0v16.313h16.313a4.078,4.078,0,1,1,0,8.156H147.633l-32.666,32.666A65.192,65.192,0,1,0,174.145,85.2Z" fill="#EEE"/>
    <path id="Path_3" data-name="Path 3" d="M28,59.1v40.94a4.074,4.074,0,0,0,4.078,4.078H56.547a4.074,4.074,0,0,0,4.078-4.078V59.1a73.123,73.123,0,0,1-16.312-8.14A73.122,73.122,0,0,1,28,59.1Z" transform="translate(67.719 156.877)" fill="#EEE"/>
  </g>
</svg>
