<svg xmlns="http://www.w3.org/2000/svg" width="261" height="261" viewBox="0 0 261 261">
  <path id="Path_1" data-name="Path 1" d="M41.15,2c10.7,10.7,73.211,37.584,78.3,234.9V263H158.6C158.6,3.566,67.25,2,41.15,2Zm182.7,39.15A91.35,91.35,0,0,0,151.292,80.3a212.714,212.714,0,0,1,14.616,52.2C181.307,64.51,215.889,49.111,223.85,41.15ZM2,93.35c10.049,10.048,61.6,40.325,65.25,156.6V263H106.4C106.4,152.336,73.775,96.221,2,93.35Zm261,0c-26.1,0-91.35,29.363-91.35,169.65H210.8C210.8,145.55,251.516,104.834,263,93.35Z" transform="translate(-2 -2)" fill="#152b81"/>
</svg>
