<svg xmlns="http://www.w3.org/2000/svg" width="86.77" height="81.767" viewBox="0 0 86.77 81.767">
    <g id="rain-svgrepo-com" transform="translate(-157.787 -164.7)">
        <path id="Path_9" data-name="Path 9" d="M239.177,188.2c-6.777,0-12.812,3.632-16.734,9.3a13.071,13.071,0,0,0-10.862-6.255c-6.731,0-12.313,5.628-13.392,13h-5.211c-7.949,0-14.378,7.392-14.378,16.514s6.441,16.514,14.378,16.514h46.2c11.8,0,21.364-10.978,21.364-24.521C260.541,199.178,250.979,188.2,239.177,188.2Z" transform="translate(-18.398 -20.773)" fill="none" />
        <path id="Path_10" data-name="Path 10" d="M220.779,164.7a22.2,22.2,0,0,0-16.734,7.914,14.8,14.8,0,0,0-10.862-4.874c-7.149,0-13.3,5.35-15.307,13h-3.3c-9.261,0-16.792,8.634-16.792,19.241s7.531,19.229,16.792,19.229h46.2c13.113,0,23.778-12.22,23.778-27.248S233.892,164.7,220.779,164.7Zm0,49.053h-46.2c-6.6,0-11.976-6.185-11.976-13.786s5.373-13.786,11.976-13.786h5.211a2.518,2.518,0,0,0,2.379-2.275c.905-6.209,5.547-10.723,11.013-10.723a10.664,10.664,0,0,1,8.924,5.152,2.334,2.334,0,0,0,1.9,1.1,2.391,2.391,0,0,0,1.926-1.044c3.632-5.245,9.028-8.251,14.831-8.251,10.456,0,18.962,9.783,18.962,21.805S231.235,213.753,220.779,213.753ZM172.77,225.474l-14.285,16.351a2.97,2.97,0,0,0,.023,3.853,2.218,2.218,0,0,0,3.412-.023L176.205,229.3a2.97,2.97,0,0,0-.023-3.853A2.21,2.21,0,0,0,172.77,225.474Zm22.2-.023a2.225,2.225,0,0,0-3.412.023l-7.137,8.17a2.97,2.97,0,0,0,.023,3.853,2.218,2.218,0,0,0,3.412-.023l7.137-8.17A2.97,2.97,0,0,0,194.97,225.451Zm34.478.023-7.137,8.17a2.971,2.971,0,0,0,.023,3.853,2.218,2.218,0,0,0,3.412-.023l7.137-8.17a2.97,2.97,0,0,0-.023-3.853,2.21,2.21,0,0,0-3.412.023Zm-18.776,0-14.285,16.351a2.97,2.97,0,0,0,.023,3.853,2.218,2.218,0,0,0,3.412-.023L214.095,229.3a2.97,2.97,0,0,0-.023-3.853A2.2,2.2,0,0,0,210.671,225.474Z" transform="translate(0 0)" fill="#5099CE" />
    </g>
</svg>