<svg xmlns="http://www.w3.org/2000/svg" width="255.433" height="261" viewBox="0 0 255.433 261">
  <path id="XMLID_1_" d="M-162.816,350.373c6.877-2.511,13.754-5.676,21.614-9.388,34.822-17.9,56.435-45.519,56.435-45.519s-35.477.655-70.3,18.557c-4.366,1.856-8.187,4.366-11.9,6.222,6.222-8.187,13.208-17.9,20.413-27.29,27.29-40.5,34.167-84.38,34.167-84.38s-37.987,22.923-64.622,63.967a217.611,217.611,0,0,0-15.064,24.779c1.2-11.243,1.2-24.124,1.2-36.678,0-54.58-21.614-99.444-21.614-99.444S-234.1,205.41-234.1,260.644c0,13.208.655,25.434,1.2,36.678-4.366-8.187-9.388-16.265-15.064-24.779-27.29-40.5-64.622-63.967-64.622-63.967s6.877,43.664,34.167,84.38c6.877,10.043,13.208,19.1,20.413,27.29-3.711-2.511-8.187-4.366-11.9-6.222-34.822-17.9-70.3-18.557-70.3-18.557s21.614,27.945,56.435,45.519a190.714,190.714,0,0,0,21.614,9.388,96.817,96.817,0,0,0-13.208,2.511c-33.294,6.986-58.073,26.089-58.073,26.089a152.406,152.406,0,0,0,63.967,1.2c10.7-2.511,21.614-5.021,29.8-8.187-1.2,1.2,17.247-9.388,23.578-15.719V422.2h9.388V354.74c6.877,6.877,24.779,17.9,24.124,16.265,8.733,3.166,19.1,5.676,29.8,8.187,33.621,6.877,63.967-1.2,63.967-1.2a151.525,151.525,0,0,0-58.291-25.98A140.269,140.269,0,0,1-162.816,350.373Z" transform="translate(340.2 -161.2)" fill="#EEE"/>
</svg>
