                        <svg xmlns="http://www.w3.org/2000/svg" width="76.926" height="82.814" viewBox="0 0 76.926 82.814">
                            <path id="wind-power-svgrepo-com" d="M130.92,64a2.581,2.581,0,0,1,2.92,2.92v75.926a2.92,2.92,0,1,1-5.84,0V66.92A2.581,2.581,0,0,1,130.92,64Zm37.963,32.362,11.681-1.057V73.578l-11.681-1.051V96.356Zm-5.84.531V71.99L145.521,70.4v2.365h-5.84V64l56.279,5.116a8.761,8.761,0,0,1,7.966,8.726v13.2a8.761,8.761,0,0,1-7.967,8.726l-56.278,5.116V78.6h5.84V98.488Zm23.362-2.12,9.024-.818a2.92,2.92,0,0,0,2.657-2.914v-13.2a2.92,2.92,0,0,0-2.658-2.909l-9.023-.818Z" transform="translate(-127.5 -63.452)" fill="#152b81" stroke="#152b81" stroke-width="1" />
                        </svg>