<?xml version="1.0" standalone="no"?>
<!DOCTYPE svg PUBLIC "-//W3C//DTD SVG 20010904//EN"
 "http://www.w3.org/TR/2001/REC-SVG-20010904/DTD/svg10.dtd">
<svg version="1.0" xmlns="http://www.w3.org/2000/svg"
 width="544.000000pt" height="544.000000pt" viewBox="0 0 544.000000 544.000000"
 preserveAspectRatio="xMidYMid meet">
<metadata>
Created by potrace 1.14, written by Peter Selinger 2001-2017
</metadata>
<g transform="translate(0.000000,544.000000) scale(0.100000,-0.100000)"
fill="#000000" stroke="none">
<path d="M2399 5425 c-314 -43 -546 -114 -823 -252 -605 -300 -1062 -831
-1277 -1483 -96 -293 -123 -489 -117 -846 5 -226 8 -276 31 -395 79 -409 234
-761 480 -1088 93 -124 296 -333 422 -434 377 -304 839 -499 1303 -549 l112
-12 0 -102 c0 -105 10 -150 42 -197 62 -88 233 -88 296 0 11 16 25 46 31 68 8
28 11 394 11 1243 l0 1203 53 49 c175 160 163 429 -25 566 -211 155 -509 48
-574 -206 -33 -131 8 -264 111 -358 l55 -51 0 -185 c0 -120 -4 -186 -10 -186
-25 0 -137 53 -199 94 -241 160 -363 454 -307 736 21 102 86 243 149 319 170
204 452 302 710 245 40 -9 115 -36 167 -61 82 -39 107 -58 185 -137 134 -135
198 -273 211 -455 4 -47 14 -104 24 -127 41 -95 163 -136 256 -86 31 17 83 79
90 108 12 45 -4 236 -25 317 -104 394 -399 692 -794 799 -71 19 -107 22 -267
23 -166 0 -194 -3 -270 -24 -398 -113 -675 -388 -787 -781 -31 -107 -42 -329
-23 -447 68 -427 395 -788 801 -887 l89 -21 0 -178 0 -179 -42 7 c-76 12 -227
54 -306 86 -340 135 -614 395 -771 729 -142 304 -174 639 -91 966 140 555 589
968 1165 1071 118 21 350 21 470 0 462 -82 851 -370 1057 -782 90 -179 132
-338 149 -563 6 -76 16 -147 24 -162 19 -37 80 -88 113 -96 15 -3 33 -8 41
-10 23 -7 94 17 130 43 68 52 82 128 60 331 -66 612 -426 1140 -970 1425 -240
126 -490 192 -769 204 -813 33 -1544 -477 -1800 -1255 -223 -681 -15 -1450
520 -1918 247 -217 553 -368 860 -424 63 -12 125 -24 138 -26 22 -4 22 -6 22
-180 l0 -176 -62 7 c-384 41 -784 209 -1105 462 -92 73 -270 250 -344 343
-225 283 -382 642 -444 1010 -23 132 -31 429 -16 560 39 337 149 661 316 925
296 471 749 808 1278 950 204 55 315 69 562 70 252 0 348 -11 552 -65 764
-200 1353 -789 1553 -1553 39 -146 59 -280 69 -460 8 -141 10 -150 37 -189 79
-112 246 -106 312 10 20 35 22 53 22 168 -1 491 -191 1034 -514 1464 -87 117
-301 337 -421 435 -361 293 -818 488 -1288 550 -145 19 -500 19 -638 0z"/>
</g>
</svg>
