<?xml version="1.0" standalone="no"?>
<!DOCTYPE svg PUBLIC "-//W3C//DTD SVG 20010904//EN"
 "http://www.w3.org/TR/2001/REC-SVG-20010904/DTD/svg10.dtd">
<svg version="1.0" xmlns="http://www.w3.org/2000/svg"
 width="544.000000pt" height="544.000000pt" viewBox="0 0 544.000000 544.000000"
 preserveAspectRatio="xMidYMid meet">
<metadata>
Created by potrace 1.14, written by Peter Selinger 2001-2017
</metadata>
<g transform="translate(0.000000,544.000000) scale(0.100000,-0.100000)"
fill="#000000" stroke="none">
<path d="M2528 5435 c-1 -1 -34 -6 -73 -9 -38 -3 -81 -8 -95 -11 -14 -3 -38
-7 -55 -10 -16 -2 -39 -6 -50 -8 -11 -3 -40 -8 -65 -12 -60 -10 -257 -66 -350
-100 -73 -27 -124 -49 -240 -103 -101 -47 -330 -186 -338 -204 -2 -5 -8 -8
-13 -8 -21 0 -218 -168 -330 -279 -254 -255 -434 -530 -569 -871 -58 -146
-121 -374 -136 -495 -3 -22 -7 -46 -9 -53 -19 -58 -28 -533 -12 -657 13 -107
38 -238 63 -335 30 -117 74 -252 85 -265 5 -5 9 -16 9 -24 0 -37 149 -335 225
-450 30 -46 55 -85 55 -87 0 -2 6 -12 14 -21 8 -10 51 -64 95 -119 90 -113
222 -251 321 -334 36 -30 67 -57 70 -60 21 -22 265 -190 275 -190 4 0 19 -9
34 -20 30 -21 241 -130 253 -130 4 0 31 -11 60 -24 52 -24 188 -74 218 -81 8
-1 40 -10 71 -19 31 -9 65 -18 75 -20 11 -2 53 -11 94 -19 105 -22 129 -26
180 -32 25 -3 61 -7 80 -10 19 -2 42 -4 52 -4 14 -1 16 -14 16 -93 -1 -142 7
-174 57 -224 33 -32 53 -44 86 -49 98 -14 168 23 204 109 15 35 16 161 16
1257 0 671 4 1219 8 1219 21 0 116 109 138 158 38 87 45 201 16 272 -3 8 -6
17 -5 20 0 3 -16 30 -36 60 -128 190 -390 220 -552 62 -66 -64 -123 -192 -114
-257 11 -88 17 -116 38 -160 21 -45 118 -155 137 -155 4 0 7 -88 6 -195 l0
-195 -26 7 c-49 12 -136 54 -202 99 -254 171 -368 484 -288 789 22 82 91 217
134 261 6 7 22 25 36 40 44 53 192 160 232 168 6 2 26 8 42 15 116 48 303 59
430 26 38 -10 77 -21 85 -25 8 -4 29 -14 45 -21 68 -30 168 -104 228 -169 118
-127 182 -286 192 -472 4 -74 35 -136 82 -168 30 -19 51 -24 103 -25 66 0 76
4 123 52 50 49 52 57 51 168 -2 122 -14 189 -56 310 -32 92 -115 252 -148 285
-3 3 -17 21 -32 41 -108 145 -302 282 -494 347 -255 87 -529 78 -774 -26 -109
-46 -168 -81 -255 -150 -86 -69 -168 -156 -217 -231 -21 -31 -41 -60 -45 -66
-21 -27 -83 -169 -101 -230 -38 -129 -47 -189 -46 -330 1 -117 5 -159 28 -263
11 -48 50 -150 83 -217 102 -204 271 -374 473 -478 74 -38 174 -79 205 -83 6
-1 13 -3 18 -4 13 -4 21 -6 59 -14 l36 -8 -1 -181 c-2 -206 5 -192 -92 -169
-33 8 -69 15 -80 17 -11 1 -20 3 -20 4 0 2 -10 4 -23 7 -44 8 -208 76 -292
120 -219 116 -448 336 -557 534 -84 151 -116 227 -151 355 -6 22 -15 51 -19
65 -4 14 -8 34 -9 45 -1 11 -5 40 -9 65 -4 25 -9 59 -11 75 -4 44 -4 234 1
275 14 113 19 144 29 178 3 9 7 28 10 42 15 85 127 351 163 388 7 7 13 17 13
22 0 18 123 173 197 248 93 94 183 165 284 225 85 50 203 107 222 107 7 0 17
4 23 9 9 10 219 72 232 69 6 -1 65 7 132 18 34 6 236 5 280 -1 19 -2 53 -7 75
-10 47 -6 80 -12 103 -19 9 -3 28 -7 42 -10 147 -27 392 -150 551 -276 53 -42
229 -219 229 -230 0 -5 6 -15 13 -22 59 -58 182 -288 221 -413 28 -86 34 -109
45 -160 18 -84 21 -116 27 -230 7 -133 27 -183 87 -223 32 -21 52 -27 97 -27
122 0 183 73 183 215 0 66 -15 223 -28 285 -2 11 -8 44 -14 74 -26 132 -160
469 -195 493 -6 4 -8 8 -4 8 10 0 -100 164 -158 236 -74 92 -192 209 -272 272
-41 31 -86 67 -100 79 -15 13 -31 23 -35 23 -5 0 -23 11 -40 24 -127 94 -461
225 -647 252 -19 3 -41 7 -49 10 -20 7 -185 17 -276 17 -77 1 -244 -11 -255
-18 -3 -1 -27 -5 -55 -9 -42 -5 -94 -16 -140 -30 -5 -1 -30 -8 -55 -15 -54
-16 -126 -40 -160 -54 -14 -6 -27 -11 -30 -11 -20 -5 -196 -96 -249 -129 -135
-84 -199 -136 -331 -267 -120 -120 -152 -157 -233 -279 -48 -71 -143 -252
-177 -336 -26 -63 -39 -105 -34 -105 4 0 2 -6 -3 -12 -9 -11 -14 -25 -29 -83
-6 -24 -33 -153 -38 -185 -24 -144 -25 -382 -1 -555 15 -102 73 -309 116 -410
7 -16 13 -32 13 -35 2 -9 91 -185 96 -190 3 -3 18 -25 32 -50 86 -148 287
-368 441 -481 45 -33 89 -66 97 -72 39 -30 257 -143 320 -166 38 -14 67 -26
103 -41 36 -15 230 -60 314 -73 l78 -12 2 -160 c3 -199 1 -208 -35 -201 -30 6
-104 17 -142 21 -14 1 -36 5 -50 9 -14 3 -38 8 -53 10 -45 8 -206 55 -282 83
-295 109 -542 264 -768 483 -183 176 -332 379 -436 595 -55 113 -70 146 -77
170 -2 6 -14 40 -28 76 -34 91 -73 239 -91 351 -41 241 -41 505 0 736 16 93
18 104 35 167 6 22 13 50 15 62 16 72 117 330 155 393 5 8 24 43 42 78 18 35
39 68 45 74 7 6 13 16 13 22 0 7 8 21 19 32 10 11 24 30 30 43 7 12 19 30 26
39 7 9 40 51 73 92 307 386 777 669 1267 764 173 33 236 39 425 39 184 1 308
-12 470 -49 14 -3 39 -8 55 -11 25 -4 137 -40 303 -97 17 -6 32 -14 32 -18 0
-5 7 -8 15 -8 31 0 323 -163 390 -217 6 -5 38 -30 72 -56 111 -85 286 -256
361 -353 112 -144 189 -267 260 -415 45 -94 107 -246 117 -289 2 -8 13 -47 24
-85 22 -77 25 -94 46 -210 17 -100 25 -173 30 -298 5 -114 9 -131 42 -175 63
-84 194 -93 269 -18 49 49 55 75 49 233 -3 82 -7 162 -9 178 -10 68 -18 118
-22 138 -28 149 -27 144 -49 227 -76 297 -234 620 -424 873 -131 174 -303 353
-436 452 -21 17 -47 37 -56 46 -40 39 -266 179 -394 244 -142 71 -156 78 -280
122 -38 13 -79 28 -90 33 -39 16 -262 69 -355 84 -52 8 -111 18 -130 21 -36 7
-476 16 -482 10z"/>
</g>
</svg>
